<?xml version="1.0" standalone="no"?><!DOCTYPE svg PUBLIC "-//W3C//DTD SVG 1.1//EN" "http://www.w3.org/Graphics/SVG/1.1/DTD/svg11.dtd"><svg t="1592114104578" class="icon" viewBox="0 0 1024 1024" version="1.1" xmlns="http://www.w3.org/2000/svg" p-id="10568" width="42" height="42" xmlns:xlink="http://www.w3.org/1999/xlink"><defs><style type="text/css"></style></defs><path d="M330.752091 436.735782A255.999872 255.999872 0 1 0 609.791951 18.943991a263.679868 263.679868 0 0 0-195.583902 0 255.999872 255.999872 0 0 0-83.455958 417.791791zM183.552164 614.399693h651.622074a51.199974 51.199974 0 0 1 47.974376 33.279983l114.995143 307.199847a51.199974 51.199974 0 0 1-47.974376 69.119965H72.85782a51.199974 51.199974 0 0 1-48.127976-68.556766l110.591944-307.199846A51.199974 51.199974 0 0 1 183.603364 614.399693z" fill="#7ac29a" p-id="10569"></path></svg>