<?xml version="1.0" standalone="no"?><!DOCTYPE svg PUBLIC "-//W3C//DTD SVG 1.1//EN" "http://www.w3.org/Graphics/SVG/1.1/DTD/svg11.dtd"><svg t="1592116783988" class="icon" viewBox="0 0 1024 1024" version="1.1" xmlns="http://www.w3.org/2000/svg" p-id="22205" xmlns:xlink="http://www.w3.org/1999/xlink" width="42" height="42"><defs><style type="text/css"></style></defs><path d="M512 921.6a81.408 81.408 0 0 1-81.408-81.408h-51.2a132.608 132.608 0 0 0 265.216 0h-51.2A81.408 81.408 0 0 1 512 921.6zM912.384 728.576l-84.48-88.576V443.904a315.904 315.904 0 0 0-277.504-313.344v-51.2a38.4 38.4 0 0 0-76.8 0v51.2a315.904 315.904 0 0 0-277.504 313.344v195.584l-84.48 89.088a55.808 55.808 0 0 0-17.92 60.416 47.104 47.104 0 0 0 47.616 26.624h741.376a47.104 47.104 0 0 0 47.616-26.624 55.808 55.808 0 0 0-17.92-60.416z m-763.904 35.328L240.128 665.6a25.6 25.6 0 0 0 7.168-17.92v-204.8a264.704 264.704 0 0 1 529.408 0v199.68a25.088 25.088 0 0 0 6.656 23.552l92.16 96.768H148.48z" p-id="22206" fill="#b8d8d8"></path></svg>