<?xml version="1.0" standalone="no"?><!DOCTYPE svg PUBLIC "-//W3C//DTD SVG 1.1//EN" "http://www.w3.org/Graphics/SVG/1.1/DTD/svg11.dtd"><svg t="1595419036664" class="icon" viewBox="0 0 1024 1024" version="1.1" xmlns="http://www.w3.org/2000/svg" p-id="10942" width="120" height="120" xmlns:xlink="http://www.w3.org/1999/xlink"><defs><style type="text/css"></style></defs><path d="M888.7 775.5c0 32-167.4 56.7-376.7 56.7-207.4 0-376.7-24.6-376.7-56.7s167.4-56.7 376.7-56.7c207.4 0.1 376.7 24.7 376.7 56.7" fill="#DFDFDF" p-id="10943"></path><path d="M653.4 792.5H282.2c-31.4 0-56.8-25.4-56.8-56.8V227.9c0-16.5 13.4-29.9 29.9-29.9h400.4c16.5 0 29.9 13.4 29.9 29.9v532.4c0 17.8-14.4 32.2-32.2 32.2z" fill="#FFFFFF" p-id="10944"></path><path d="M653.4 798.7H282.2c-34.8 0-63-28.3-63-63V227.9c0-19.9 16.2-36.1 36.1-36.1h400.4c19.9 0 36.1 16.2 36.1 36.1v532.4c0 21.2-17.2 38.4-38.4 38.4zM255.3 204.2c-13.1 0-23.7 10.6-23.7 23.7v507.7c0 27.9 22.7 50.6 50.6 50.6h371.2c14.3 0 25.9-11.6 25.9-25.9V227.9c0-13.1-10.6-23.7-23.7-23.7H255.3z" fill="#A9B1B6" p-id="10945"></path><path d="M308 687s40.5 80.1-35 105.5c0 0-0.4 0 0 0 162.2 0 324.4 2 486.5-2 7.4-2 14.7-5.9 20.3-9.8 3.7-2 12.9-11.7 18.4-25.4 5.5-15.6 7.4-39.1-7.4-56.6-3.7-5.9-9.2-9.8-16.6-11.7H308.5" fill="#FFFFFF" p-id="10946"></path><path d="M515 798.9c-40.5 0-80.8-0.1-120.6-0.2-40.5-0.1-81-0.2-121.5-0.2l-0.1-6.3-1.8-5.4c19-6.4 31.7-17 37.7-31.6 11.9-29.2-5.9-65.1-6.1-65.5-1.5-3-0.3-6.6 2.6-8.1 1-0.5 2-0.7 3-0.6H775l0.8 0.2c8.8 2.4 15.6 7.2 20.1 14.3 19.4 23.1 11 53.2 7.9 61.9-6.2 15.2-16.3 26.1-21.3 28.7-6.2 4.5-14.3 8.3-21.5 10.3l-1.4 0.2c-81.2 1.9-163.4 2.3-244.6 2.3z m-216.6-12.4c32.1 0 64.1 0.1 96.1 0.2 119.3 0.4 242.8 0.7 364.2-2.2 5.7-1.6 12.1-4.8 17.7-8.7 3-1.6 11.3-10.4 16.3-22.7 2.4-6.9 9.4-31.6-6.4-50.5-3.2-5-7.3-7.9-12.8-9.6H317.1c5.2 13.8 13 41.7 2.8 66.7-4.5 10.8-11.7 19.7-21.5 26.8z" fill="#A9B1B6" p-id="10947"></path><path d="M287.7 269.9h153.4v38.4H287.7zM287.7 327.4h354.8v19.2H287.7zM287.7 394.5h76.7v38.4h-76.7zM287.7 452.1h306.8v19.2H287.7z" fill="#EDEEEE" p-id="10948"></path><path d="M287.7 528.8h230.1V548H287.7z" fill="#EDEEEE" p-id="10949"></path><path d="M297.3 567.1h182.2v19.2H297.3z" fill="#EDEEEE" p-id="10950"></path></svg>