<svg id="组_680" data-name="组 680" xmlns="http://www.w3.org/2000/svg" width="52" height="24" viewBox="0 0 52 24">
  <defs>
    <style>
      .cls-1 {
        fill: #5080d8;
      }

      .cls-2 {
        fill: #fff;
        fill-rule: evenodd;
      }
    </style>
  </defs>
  <rect id="圆角矩形_1386" data-name="圆角矩形 1386" class="cls-1" width="52" height="24" rx="5" ry="5"/>
  <path id="返回" class="cls-2" d="M3260.05,418.8v-0.75h-8.28v0.75h-0.98V408.061h10.24V418.8h-0.98Zm0-9.867h-8.28V417.2h8.28v-8.273Zm-1.65,6.914h-0.92v-0.656h-3.15v0.656h-0.92v-5.121h4.99v5.121Zm-0.92-4.3h-3.15v2.824h3.15v-2.824Zm-12.23,7.02-2.88-.036a3.025,3.025,0,0,1-2.8-1.359,18.009,18.009,0,0,0-1.41,1.57l-0.48-.972q1.035-1,1.5-1.436v-3.943h-1.39v-0.867h2.29v5.015a2.762,2.762,0,0,0,2.51,1.16l2.93,0.036,3.83-.083q-0.12.387-.33,0.926Zm3.04-1.454q-1.125-1.019-2.25-1.974a12.945,12.945,0,0,1-3.38,2.115c-0.17-.242-0.37-0.492-0.59-0.75a12.51,12.51,0,0,0,3.25-1.969c-0.76-.633-1.52-1.246-2.27-1.84l0.56-.609c0.83,0.621,1.62,1.225,2.38,1.811a7.812,7.812,0,0,0,1.55-2.42h-4.72a7.8,7.8,0,0,1-1.65,5.285,7.84,7.84,0,0,0-.62-0.738,6.879,6.879,0,0,0,1.38-4.629v-3.211a48.683,48.683,0,0,0,6.73-.5l0.33,0.914c-2.02.211-4.07,0.348-6.17,0.41v1.652h5.68v0.832a8.35,8.35,0,0,1-1.78,2.977c0.81,0.645,1.57,1.273,2.27,1.887Zm-9.9-9.023,0.75-.5q0.6,0.726,1.65,2.215l-0.84.586Q3239.005,408.893,3238.39,408.084Zm-5.68,10.627a1.013,1.013,0,0,1-1.43,0l-4.99-5a1,1,0,0,1,0-1.432l4.99-5a1.01,1.01,0,0,1,1.43,1.427L3228.43,413l4.28,4.284A1.016,1.016,0,0,1,3232.71,418.711Z" transform="translate(-3218 -401)"/>
</svg>
