<?xml version="1.0" standalone="no"?><!DOCTYPE svg PUBLIC "-//W3C//DTD SVG 1.1//EN" "http://www.w3.org/Graphics/SVG/1.1/DTD/svg11.dtd"><svg t="1595577321551" class="icon" viewBox="0 0 1024 1024" version="1.1" xmlns="http://www.w3.org/2000/svg" p-id="3138" width="100" height="100" xmlns:xlink="http://www.w3.org/1999/xlink"><defs><style type="text/css"></style></defs><path d="M807.1 114.7h-602c-18.2 0-32.9 18.2-32.9 40.7 0 22.5 14.7 40.7 32.9 40.7h607.7c18.2 0 32.9-18.2 32.9-40.7v-1.1c0-21.9-14.4-39.6-32.1-39.6h-6.5z m0 141.6h-602c-18.2 0-32.9 18.2-32.9 40.7 0 22.5 14.7 40.7 32.9 40.7h607.7c18.2 0 32.9-18.2 32.9-40.7v-1.1c0-21.9-14.4-39.6-32.1-39.6h-6.5z m-360 327.8h142.4c10.9 0 21.6-4.4 30.3-12.5L727.7 471c8.7-8.1 19.4-12.5 30.3-12.5h65.5c12.4 0 22.5-12.4 22.5-27.7 0-15.3-10.1-27.7-22.5-27.7H194.7c-12.4 0-22.5 12.4-22.5 27.7 0 15.3 10.1 27.7 22.5 27.7h82.8c11.3 0 22.3 4.7 31.2 13.4l109.1 106.5c3.8 3.7 8.6 5.8 13.4 5.8h15.9z m0 0" fill="#768492" p-id="3139"></path><path d="M742.5 536L621.2 649.2c-8.7 8.1-19.4 12.5-30.3 12.5H442.6c-11.3 0-22.3-4.7-31.2-13.4L299.8 536.6c-1.4-0.5-9.5-0.6-20.8-0.6H113.2C85.5 536 63 563.8 63 598v249.3c0 34.2 22.5 62 50.2 62h797.7c27.7 0 50.2-27.8 50.2-62V598c0-34.3-22.5-62-50.2-62H742.5z m0 0" fill="#768492" p-id="3140"></path></svg>