<?xml version="1.0" encoding="UTF-8"?>
<svg width="14px" height="14px" viewBox="0 0 14 14" version="1.1" xmlns="http://www.w3.org/2000/svg" xmlns:xlink="http://www.w3.org/1999/xlink">
    <!-- Generator: Sketch 58 (84663) - https://sketch.com -->
    <title>关闭  </title>
    <desc>Created with Sketch.</desc>
    <g id="页面-1-4" stroke="none" stroke-width="1" fill="none" fill-rule="evenodd">
        <g id="可可VPN" transform="translate(-954.000000, -104.000000)" fill="#74788D">
            <g id="编组-4" transform="translate(196.000000, 95.000000)">
                <g id="窗口栏">
                    <g id="Combined-shape-1226">
                        <path d="M761.783502,11.3059124 L764.999,14.522 L768.216253,11.3059124 C768.624439,10.8980292 769.285982,10.8980292 769.69386,11.3059124 C770.102047,11.7140055 770.102047,12.3755836 769.69386,12.7836768 L766.477,15.999 L769.69386,19.2163757 C770.102047,19.6244689 770.102047,20.286047 769.69386,20.6939302 C769.285982,21.1020233 768.624439,21.1020233 768.216253,20.6939302 L764.999,17.477 L761.783502,20.6939302 C761.375638,21.1020233 760.714095,21.1020233 760.305909,20.6939302 C759.89803,20.286047 759.89803,19.6244689 760.305909,19.2163757 L763.522,15.999 L760.305909,12.7836768 C759.89803,12.3755836 759.89803,11.7140055 760.305909,11.3059124 C760.714095,10.8980292 761.375638,10.8980292 761.783502,11.3059124 Z"></path>
                    </g>
                </g>
            </g>
        </g>
    </g>
</svg>